<svg width="20" height="20" viewBox="0 0 20 20" fill="none" xmlns="http://www.w3.org/2000/svg">
<path fill-rule="evenodd" clip-rule="evenodd" d="M7.36003 1.25069C7.55234 1.71447 7.33227 2.24634 6.86848 2.43865C5.86913 2.85304 4.9689 3.4603 4.21458 4.21461C2.73297 5.69625 1.81818 7.74045 1.81818 10C1.81818 14.5187 5.4813 18.1818 10 18.1818C12.2596 18.1818 14.3038 17.267 15.7854 15.7854C16.5397 15.0311 17.147 14.1309 17.5614 13.1316C17.7537 12.6678 18.2855 12.4477 18.7493 12.64C19.2131 12.8323 19.4332 13.3641 19.2409 13.8279C18.7338 15.0509 17.9915 16.1506 17.0711 17.0711M17.0711 17.0711C15.2624 18.8797 12.7611 20 10 20C4.47715 20 0 15.5229 0 10C0 7.23888 1.12029 4.73764 2.92893 2.92898C3.84937 2.00855 4.94905 1.26626 6.17206 0.759138C6.63585 0.566828 7.16772 0.786903 7.36003 1.25069" fill="#B2B8C2"/>
<path fill-rule="evenodd" clip-rule="evenodd" d="M9.09091 0.909089C9.09091 0.407013 9.49792 0 10 0C15.5229 0 20 4.47714 20 9.99998C20 10.5021 19.593 10.9091 19.0909 10.9091H10C9.49792 10.9091 9.09091 10.5021 9.09091 9.99998V0.909089ZM10.9091 1.86811V9.09089H18.1319C17.7127 5.29852 14.7015 2.28734 10.9091 1.86811Z" fill="#B2B8C2"/>
</svg>
