<svg width="16" height="16" viewBox="0 0 16 16" fill="none" xmlns="http://www.w3.org/2000/svg">
<path fill-rule="evenodd" clip-rule="evenodd" d="M6.52961 1.85627C3.75065 2.51891 1.68421 5.01813 1.68421 8C1.68421 11.4881 4.51188 14.3158 8 14.3158C10.9819 14.3158 13.4811 12.2493 14.1437 9.47039C13.1962 10.2949 11.9582 10.7942 10.6029 10.7942C7.6221 10.7942 5.20576 8.3779 5.20576 5.39714C5.20576 4.04183 5.70509 2.80377 6.52961 1.85627ZM0 8C0 3.58172 3.58172 0 8 0C8.55428 0 9.09628 0.056496 9.6202 0.164331C10.0036 0.243242 10.2821 0.575931 10.2923 0.967232C10.3024 1.35853 10.0417 1.70526 9.66289 1.80401C8.06695 2.2201 6.88997 3.67222 6.88997 5.39714C6.88997 7.44773 8.55226 9.11003 10.6029 9.11003C12.3278 9.11003 13.7799 7.93305 14.196 6.33712C14.2947 5.95835 14.6414 5.69756 15.0327 5.70774C15.424 5.71792 15.7567 5.99638 15.8356 6.37977C15.9435 6.9037 16 7.44571 16 8C16 12.4183 12.4183 16 8 16C3.58172 16 0 12.4183 0 8Z" fill="#1D1D1D"/>
</svg>
