<svg width="19" height="19" viewBox="0 0 19 19" fill="none" xmlns="http://www.w3.org/2000/svg">
<path d="M9.5 19C4.25315 19 0 14.7469 0 9.5C0 4.25315 4.25315 0 9.5 0C14.7469 0 19 4.25315 19 9.5C19 14.7469 14.7469 19 9.5 19ZM7.37982 16.9505C6.44256 14.9625 5.99972 12.5699 5.88109 10.3752H1.72727C1.91213 11.8371 2.62965 13.4056 3.58216 14.53C4.53468 15.6543 5.96813 16.5279 7.37982 16.9505ZM7.6285 10.3752C7.77195 12.6922 8.4341 14.9435 9.5 16.8644C10.5947 14.8927 11.2342 12.6262 11.3715 10.3752H7.6285ZM17.249 10.3752H13.0962C12.9776 12.5699 12.5608 14.9625 11.6236 16.9505C13.0353 16.5279 14.471 15.6543 15.4235 14.53C16.376 13.4056 17.0642 11.8371 17.249 10.3752ZM1.72632 8.61807H5.88109C5.99972 6.42336 6.44351 4.04159 7.38077 2.05354C5.96908 2.47618 4.53468 3.34294 3.58216 4.4673C2.62965 5.59167 1.91118 7.15611 1.72632 8.61807ZM7.6285 8.61807H11.3696C11.2326 6.36714 10.5944 4.10736 9.5 2.1356C8.4053 4.10728 7.76488 6.36706 7.62755 8.61807H7.6285ZM11.6236 2.05354C12.5608 4.04159 12.9767 6.42336 13.0953 8.61807H17.2481C17.0632 7.15611 16.376 5.58598 15.4235 4.46161C14.471 3.33725 13.0353 2.47618 11.6236 2.05354Z" fill="#1D1D1D"/>
</svg>
