<svg width="40" height="36" viewBox="0 0 40 36" fill="none" xmlns="http://www.w3.org/2000/svg">
<path d="M9.1139 6.6284L0 15.7883L9.1139 24.9022L18.2278 15.7883L9.1139 6.6284ZM3.59032 15.7883L9.1139 10.2648L14.6375 15.7883L9.1139 21.3119L3.59032 15.7883Z" fill="#00C27C"/>
<path d="M10.8631 26.6512L20.0231 35.8111L29.183 26.6512L20.0231 17.5373L10.8631 26.6512ZM20.0231 32.2208L14.4995 26.6972L20.0231 21.1737L25.5466 26.6972L20.0231 32.2208Z" fill="#00C27C"/>
<path d="M27.2035 7.18065L20.0229 0L12.8422 7.18065L20.0229 14.3613L27.2035 7.18065ZM20.0229 2.85385L24.3497 7.18065L20.0229 11.5074L15.6961 7.18065L20.0229 2.85385Z" fill="#4D94FF"/>
<path d="M30.84 6.6743L21.6801 15.8342L30.84 24.9941L40 15.8342L30.84 6.6743ZM25.3165 15.8342L30.84 10.3106L36.3636 15.8342L30.84 21.3578L25.3165 15.8342Z" fill="#00C27C"/>
</svg>
