<svg width="26" height="26" viewBox="0 0 26 26" fill="none" xmlns="http://www.w3.org/2000/svg">
<path fill-rule="evenodd" clip-rule="evenodd" d="M9.96933 2.98489C9.96933 2.19325 10.2886 1.43403 10.857 0.874255C11.4254 0.314479 12.1962 0 13 0C13.8038 0 14.5747 0.314479 15.143 0.874255C15.7114 1.43403 16.0307 2.19325 16.0307 2.98489V4.55589C16.0307 4.94787 15.9523 5.33602 15.8 5.69816C15.6477 6.0603 15.4244 6.38936 15.143 6.66653C15.105 6.704 15.066 6.74043 15.026 6.77578C15.4121 6.9753 15.769 7.23248 16.0829 7.54169C16.9006 8.34698 17.3599 9.43919 17.3599 10.578V11.7825H18.4021C18.7867 11.7824 19.1599 11.9107 19.461 12.1463C19.762 12.382 19.9732 12.7111 20.0599 13.0801C20.0801 13.161 20.0838 13.2449 20.0707 13.3272C20.0577 13.4094 20.0282 13.4883 19.9839 13.5592C19.9396 13.6301 19.8815 13.6917 19.8129 13.7403C19.7443 13.7889 19.6665 13.8236 19.5842 13.8424C19.5018 13.8611 19.4165 13.8636 19.3332 13.8496C19.2499 13.8356 19.1702 13.8055 19.0988 13.7609C19.0274 13.7164 18.9657 13.6583 18.9173 13.59C18.8689 13.5218 18.8348 13.4448 18.8168 13.3634C18.7951 13.2712 18.7422 13.1889 18.6669 13.1301C18.5916 13.0712 18.4983 13.0392 18.4021 13.0393H7.46509C7.36887 13.0392 7.27547 13.0713 7.20014 13.1303C7.12482 13.1892 7.07202 13.2716 7.05037 13.3639C7.03145 13.4443 6.99663 13.5203 6.94791 13.5874C6.8992 13.6545 6.83753 13.7116 6.76643 13.7552C6.69534 13.7989 6.6162 13.8284 6.53355 13.8419C6.4509 13.8555 6.36635 13.8528 6.28472 13.8342C6.2031 13.8156 6.126 13.7813 6.05783 13.7333C5.98966 13.6853 5.93176 13.6246 5.88742 13.5546C5.84309 13.4845 5.81319 13.4066 5.79943 13.3252C5.78568 13.2438 5.78834 13.1605 5.80726 13.0801C5.89403 12.7111 6.10516 12.382 6.40622 12.1463C6.70729 11.9107 7.08053 11.7824 7.46509 11.7825H8.64008V10.578C8.64008 9.43919 9.09943 8.34698 9.91707 7.54169C10.231 7.23248 10.5879 6.9753 10.974 6.77578C10.934 6.74043 10.895 6.704 10.857 6.66653C10.5756 6.38936 10.3523 6.0603 10.2 5.69816C10.0477 5.33602 9.96933 4.94787 9.96933 4.55589V2.98489ZM9.91616 11.7825H16.0838V10.578C16.0838 10.1792 16.0041 9.78423 15.8491 9.41574C15.6941 9.04724 15.467 8.71241 15.1806 8.43038C14.8942 8.14834 14.5543 7.92462 14.1801 7.77198C13.806 7.61935 13.405 7.54079 13 7.54079C12.1821 7.54079 11.3977 7.86078 10.8194 8.43038C10.2411 8.99998 9.91616 9.77252 9.91616 10.578V11.7825ZM13 1.2568C12.5347 1.2568 12.0884 1.43886 11.7593 1.76295C11.4303 2.08703 11.2454 2.52657 11.2454 2.98489V4.55589C11.2454 5.01421 11.4303 5.45376 11.7593 5.77784C12.0884 6.10192 12.5347 6.28399 13 6.28399C13.4653 6.28399 13.9116 6.10192 14.2407 5.77784C14.5697 5.45376 14.7546 5.01421 14.7546 4.55589V2.98489C14.7546 2.75796 14.7092 2.53324 14.621 2.32358C14.5329 2.11392 14.4036 1.92341 14.2407 1.76295C14.0778 1.60248 13.8843 1.47519 13.6715 1.38834C13.4586 1.3015 13.2304 1.2568 13 1.2568Z" fill="url(#paint0_linear_1_1487)"/>
<path fill-rule="evenodd" clip-rule="evenodd" d="M1.49473e-09 8.35247C1.49473e-09 7.66499 0.277289 7.00566 0.770866 6.51954C1.26444 6.03342 1.93388 5.76032 2.6319 5.76032C3.32993 5.76032 3.99936 6.03342 4.49294 6.51954C4.98652 7.00566 5.2638 7.66499 5.2638 8.35247V10.0544C5.2638 10.7419 4.98652 11.4012 4.49294 11.8873C3.99936 12.3734 3.32993 12.6465 2.6319 12.6465C1.93388 12.6465 1.26444 12.3734 0.770866 11.8873C0.277289 11.4012 1.49473e-09 10.7419 1.49473e-09 10.0544V8.35247ZM2.6319 7.01712C2.45385 7.01712 2.27755 7.05166 2.11305 7.11877C1.94855 7.18587 1.79909 7.28424 1.67319 7.40823C1.54729 7.53223 1.44742 7.67944 1.37928 7.84145C1.31114 8.00346 1.27607 8.17711 1.27607 8.35247V10.0544C1.27607 10.4085 1.41892 10.7482 1.67319 10.9986C1.92745 11.249 2.27231 11.3897 2.6319 11.3897C2.99149 11.3897 3.33635 11.249 3.59062 10.9986C3.84488 10.7482 3.98773 10.4085 3.98773 10.0544V8.35247C3.98773 8.17711 3.95266 8.00346 3.88452 7.84145C3.81639 7.67944 3.71652 7.53223 3.59062 7.40823C3.46472 7.28424 3.31525 7.18587 3.15075 7.11877C2.98626 7.05166 2.80995 7.01712 2.6319 7.01712Z" fill="url(#paint1_linear_1_1487)"/>
<path d="M3.38372 15.2649C2.82474 15.2649 2.28865 15.4836 1.89339 15.8728C1.49813 16.2621 1.27607 16.7901 1.27607 17.3407V20.2156C1.27607 21.1613 1.46323 22.0982 1.82691 22.9737L0.64548 23.4492C0.21922 22.4228 -2.09068e-05 21.3245 1.49473e-09 20.2156V17.3407C1.49473e-09 16.4568 0.356498 15.6091 0.991069 14.9842C1.62564 14.3592 2.4863 14.0081 3.38372 14.0081H3.80536C4.42053 14.0081 4.98732 14.3364 5.2856 14.8663L6.34155 16.7384C6.37846 16.8038 6.43243 16.8582 6.49787 16.896C6.56332 16.9339 6.63785 16.9538 6.71374 16.9537H8.6571C9.53971 16.9537 10.1097 17.8722 9.70773 18.6462L9.61096 18.8326C9.26805 19.4926 8.74678 20.0466 8.10461 20.4335C7.46243 20.8203 6.72428 21.0251 5.97149 21.0252C5.43037 21.0252 4.89865 20.8858 4.42913 20.6209C3.9596 20.356 3.5686 19.9747 3.29493 19.5149L2.87914 18.8164C2.79656 18.6728 2.77464 18.5029 2.81813 18.3436C2.86161 18.1842 2.96699 18.0481 3.11153 17.9646C3.25606 17.8811 3.42814 17.857 3.59059 17.8974C3.75304 17.9378 3.89282 18.0395 3.97975 18.1806L4.39554 18.8792C4.55666 19.1499 4.78688 19.3744 5.06334 19.5304C5.3398 19.6864 5.65288 19.7684 5.97149 19.7684C6.48935 19.7684 6.99715 19.6275 7.43893 19.3614C7.88072 19.0953 8.23933 18.7143 8.47526 18.2602L8.50078 18.2105H6.71374C6.41034 18.2104 6.11247 18.1305 5.85099 17.979C5.5895 17.8274 5.37392 17.6097 5.22658 17.3485L4.1701 15.4764C4.13398 15.4123 4.08111 15.3589 4.01698 15.3217C3.95285 15.2845 3.87978 15.2649 3.80536 15.2649H3.38372Z" fill="url(#paint2_linear_1_1487)"/>
<path fill-rule="evenodd" clip-rule="evenodd" d="M26 8.35247C26 7.66499 25.7227 7.00566 25.2291 6.51954C24.7356 6.03342 24.0661 5.76032 23.3681 5.76032C22.6701 5.76032 22.0006 6.03342 21.5071 6.51954C21.0135 7.00566 20.7362 7.66499 20.7362 8.35247V10.0544C20.7362 10.7419 21.0135 11.4012 21.5071 11.8873C22.0006 12.3734 22.6701 12.6465 23.3681 12.6465C24.0661 12.6465 24.7356 12.3734 25.2291 11.8873C25.7227 11.4012 26 10.7419 26 10.0544V8.35247ZM23.3681 7.01712C23.5461 7.01712 23.7225 7.05166 23.887 7.11877C24.0514 7.18587 24.2009 7.28424 24.3268 7.40823C24.4527 7.53223 24.5526 7.67944 24.6207 7.84145C24.6889 8.00346 24.7239 8.17711 24.7239 8.35247V10.0544C24.7239 10.4085 24.5811 10.7482 24.3268 10.9986C24.0725 11.249 23.7277 11.3897 23.3681 11.3897C23.0085 11.3897 22.6636 11.249 22.4094 10.9986C22.1551 10.7482 22.0123 10.4085 22.0123 10.0544V8.35247C22.0123 8.17711 22.0473 8.00346 22.1155 7.84145C22.1836 7.67944 22.2835 7.53223 22.4094 7.40823C22.5353 7.28424 22.6847 7.18587 22.8492 7.11877C23.0137 7.05166 23.19 7.01712 23.3681 7.01712Z" fill="url(#paint3_linear_1_1487)"/>
<path d="M22.6163 15.2649C23.1753 15.2649 23.7113 15.4836 24.1066 15.8728C24.5019 16.2621 24.7239 16.7901 24.7239 17.3407V20.2156C24.7239 21.1615 24.5368 22.0983 24.1731 22.9737L25.3545 23.4492C25.7808 22.4228 26 21.3245 26 20.2156V17.3407C26 16.903 25.9125 16.4697 25.7424 16.0653C25.5724 15.661 25.3231 15.2936 25.0089 14.9842C24.6947 14.6747 24.3217 14.4292 23.9112 14.2617C23.5006 14.0943 23.0606 14.0081 22.6163 14.0081H22.1946C21.8926 14.0082 21.5961 14.0878 21.3359 14.2387C21.0756 14.3896 20.861 14.6063 20.7144 14.8663L19.6584 16.7384C19.6215 16.8038 19.5676 16.8582 19.5021 16.896C19.4367 16.9339 19.3622 16.9538 19.2863 16.9537H17.344C16.4613 16.9537 15.8908 17.8722 16.2928 18.6462L16.3896 18.8326C16.7325 19.4926 17.2538 20.0466 17.8959 20.4335C18.5381 20.8203 19.2763 21.0251 20.029 21.0252C20.5702 21.0252 21.1019 20.8858 21.5714 20.6209C22.0409 20.356 22.4319 19.9747 22.7056 19.5149L23.1214 18.8164C23.1653 18.7451 23.1943 18.666 23.2069 18.5836C23.2195 18.5012 23.2153 18.4172 23.1945 18.3364C23.1738 18.2556 23.137 18.1797 23.0862 18.1131C23.0354 18.0465 22.9717 17.9904 22.8987 17.9483C22.8257 17.9061 22.745 17.8787 22.6612 17.8676C22.5773 17.8564 22.4921 17.8618 22.4104 17.8835C22.3287 17.9051 22.2522 17.9425 22.1853 17.9935C22.1184 18.0445 22.0625 18.1081 22.0208 18.1806L21.605 18.8792C21.4439 19.1499 21.2137 19.3744 20.9372 19.5304C20.6607 19.6864 20.3477 19.7684 20.029 19.7684C19.5112 19.7684 19.0034 19.6275 18.5616 19.3614C18.1198 19.0953 17.7612 18.7143 17.5253 18.2602L17.4998 18.2105H19.2868C19.5903 18.2105 19.8883 18.1306 20.1498 17.9791C20.4114 17.8275 20.6271 17.6098 20.7745 17.3485L21.8304 15.4764C21.8666 15.4123 21.9194 15.3589 21.9836 15.3217C22.0477 15.2845 22.1207 15.2649 22.1952 15.2649H22.6163Z" fill="url(#paint4_linear_1_1487)"/>
<path d="M4.6645 22.3164C4.59633 22.2684 4.51923 22.2341 4.43761 22.2155C4.35598 22.1968 4.27143 22.1942 4.18878 22.2078C4.10613 22.2213 4.027 22.2508 3.9559 22.2944C3.8848 22.3381 3.82314 22.3951 3.77442 22.4623C3.7257 22.5294 3.69089 22.6053 3.67196 22.6857L3.37581 23.9462C3.31804 24.1919 3.31731 24.4472 3.37368 24.6932C3.43005 24.9392 3.54206 25.1695 3.70137 25.3669C3.86067 25.5643 4.06316 25.7238 4.29375 25.8334C4.52433 25.943 4.77707 26 5.03311 26H20.8341C21.0901 26 21.3429 25.943 21.5735 25.8334C21.804 25.7238 22.0065 25.5643 22.1658 25.3669C22.3251 25.1695 22.4371 24.9392 22.4935 24.6932C22.5499 24.4472 22.5492 24.1919 22.4914 23.9462L22.1952 22.6857C22.157 22.5234 22.0549 22.3826 21.9113 22.2944C21.7677 22.2062 21.5944 22.1778 21.4296 22.2155C21.2647 22.2531 21.1218 22.3537 21.0323 22.4951C20.9427 22.6365 20.9139 22.8072 20.9521 22.9695L21.2488 24.23C21.2632 24.2914 21.2634 24.3553 21.2492 24.4168C21.2351 24.4783 21.207 24.5358 21.1672 24.5852C21.1273 24.6345 21.0766 24.6743 21.019 24.7017C20.9613 24.7291 20.8981 24.7432 20.8341 24.7432H5.03364C4.96962 24.7432 4.90642 24.7291 4.84875 24.7017C4.79108 24.6743 4.74042 24.6345 4.70056 24.5852C4.66069 24.5358 4.63265 24.4783 4.61851 24.4168C4.60437 24.3553 4.60451 24.2914 4.61892 24.23L4.91507 22.9695C4.93399 22.8892 4.93665 22.8059 4.9229 22.7245C4.90915 22.6431 4.87925 22.5651 4.83491 22.4951C4.79057 22.4251 4.73267 22.3644 4.6645 22.3164Z" fill="url(#paint5_linear_1_1487)"/>
<defs>
<linearGradient id="paint0_linear_1_1487" x1="13" y1="0" x2="13" y2="26" gradientUnits="userSpaceOnUse">
<stop stop-color="white"/>
<stop offset="1" stop-color="white" stop-opacity="0.8"/>
</linearGradient>
<linearGradient id="paint1_linear_1_1487" x1="13" y1="0" x2="13" y2="26" gradientUnits="userSpaceOnUse">
<stop stop-color="white"/>
<stop offset="1" stop-color="white" stop-opacity="0.8"/>
</linearGradient>
<linearGradient id="paint2_linear_1_1487" x1="13" y1="0" x2="13" y2="26" gradientUnits="userSpaceOnUse">
<stop stop-color="white"/>
<stop offset="1" stop-color="white" stop-opacity="0.8"/>
</linearGradient>
<linearGradient id="paint3_linear_1_1487" x1="13" y1="0" x2="13" y2="26" gradientUnits="userSpaceOnUse">
<stop stop-color="white"/>
<stop offset="1" stop-color="white" stop-opacity="0.8"/>
</linearGradient>
<linearGradient id="paint4_linear_1_1487" x1="13" y1="0" x2="13" y2="26" gradientUnits="userSpaceOnUse">
<stop stop-color="white"/>
<stop offset="1" stop-color="white" stop-opacity="0.8"/>
</linearGradient>
<linearGradient id="paint5_linear_1_1487" x1="13" y1="0" x2="13" y2="26" gradientUnits="userSpaceOnUse">
<stop stop-color="white"/>
<stop offset="1" stop-color="white" stop-opacity="0.8"/>
</linearGradient>
</defs>
</svg>
