<svg width="20" height="20" viewBox="0 0 20 20" fill="none" xmlns="http://www.w3.org/2000/svg">
<path fill-rule="evenodd" clip-rule="evenodd" d="M17.0715 2.92845C17.99 3.84692 18.711 4.91625 19.2146 6.1076C19.736 7.3411 20 8.65003 20 9.99889C20 11.0904 19.8247 12.1664 19.4786 13.1913L18.0078 12.6966C18.2984 11.8314 18.447 10.924 18.447 10.0011C18.447 5.34443 14.6556 1.55519 9.99889 1.55519C5.34221 1.55519 1.55297 5.34443 1.55297 10.0011C1.55297 10.9484 1.70826 11.878 2.01442 12.7632L0.547976 13.2712C0.184137 12.2219 0 11.1215 0 10.0011C0 8.65003 0.264004 7.3411 0.785358 6.1076C1.28896 4.91625 2.00998 3.84692 2.92845 2.92845C3.84692 2.00998 4.91625 1.28896 6.1076 0.785358C7.3411 0.264004 8.65225 0 10.0011 0C11.35 0 12.6589 0.264004 13.8924 0.785358C15.0837 1.28896 16.1531 2.00998 17.0715 2.92845ZM10.0521 4.8963C11.7582 4.8963 13.147 6.2851 13.147 7.99114C13.147 9.69719 11.7582 11.086 10.0521 11.086C8.34609 11.086 6.95729 9.69719 6.95729 7.99114C6.95729 6.2851 8.34609 4.8963 10.0521 4.8963ZM10.0521 6.44927C9.20244 6.44927 8.51026 7.14145 8.51026 7.99114C8.51026 8.84084 9.20244 9.53302 10.0521 9.53302C10.9018 9.53302 11.594 8.84084 11.594 7.99114C11.594 7.14145 10.9018 6.44927 10.0521 6.44927ZM10.0521 11.6451C11.5674 11.6451 13.0338 11.949 14.4093 12.5524C15.7382 13.1337 16.9207 13.9634 17.9257 15.0194L18.3805 15.4986L17.9834 16.0244C17.0715 17.2313 15.878 18.2319 14.5313 18.9174C13.1204 19.6362 11.5962 20 10.0011 20C8.4193 20 6.90849 19.6406 5.50638 18.9351C4.17083 18.2629 2.9817 17.2779 2.06767 16.0888L1.66611 15.5652L2.11647 15.0838C3.12368 14.01 4.31503 13.1625 5.65502 12.5702C7.0416 11.9556 8.52135 11.6451 10.0521 11.6451ZM3.73378 15.665C5.33555 17.4421 7.58292 18.4471 10.0011 18.4471C12.4459 18.4471 14.711 17.4221 16.3128 15.6118C14.5979 14.0499 12.3993 13.198 10.0521 13.198C7.6761 13.198 5.45757 14.0699 3.73378 15.665Z" fill="#B2B8C2"/>
</svg>
