<svg width="18" height="18" viewBox="0 0 18 18" fill="none" xmlns="http://www.w3.org/2000/svg">
<path fill-rule="evenodd" clip-rule="evenodd" d="M8.19983 0C3.67121 0 0 3.67121 0 8.19983C0 12.7284 3.67121 16.3997 8.19983 16.3997C10.1531 16.3997 11.9469 15.7167 13.3554 14.5765L16.526 17.7471C16.8631 18.0842 17.4096 18.0842 17.7467 17.7471C18.0837 17.41 18.0837 16.8635 17.7467 16.5264L14.5761 13.3559C15.7165 11.9473 16.3997 10.1533 16.3997 8.19983C16.3997 3.67121 12.7284 0 8.19983 0ZM1.72628 8.19983C1.72628 4.6246 4.6246 1.72628 8.19983 1.72628C11.7751 1.72628 14.6734 4.6246 14.6734 8.19983C14.6734 11.775 11.7751 14.6734 8.19983 14.6734C4.6246 14.6734 1.72628 11.775 1.72628 8.19983Z" fill="#1D1D1D"/>
</svg>
