<svg width="20" height="20" viewBox="0 0 20 20" fill="none" xmlns="http://www.w3.org/2000/svg">
<g clip-path="url(#clip0_2049_604)">
<path fill-rule="evenodd" clip-rule="evenodd" d="M0.833374 9.99992C0.833374 4.93718 4.9373 0.833252 10 0.833252C15.0628 0.833252 19.1667 4.93718 19.1667 9.99992C19.1667 15.0627 15.0628 19.1666 10 19.1666C4.9373 19.1666 0.833374 15.0627 0.833374 9.99992ZM10 2.49992C5.85778 2.49992 2.50004 5.85766 2.50004 9.99992C2.50004 14.1422 5.85778 17.4999 10 17.4999C14.1423 17.4999 17.5 14.1422 17.5 9.99992C17.5 5.85766 14.1423 2.49992 10 2.49992Z" fill="#1D1D1D"/>
<path fill-rule="evenodd" clip-rule="evenodd" d="M7.93765 5.43752C8.48463 4.89054 9.22649 4.58325 10 4.58325C10.7736 4.58325 11.5155 4.89054 12.0624 5.43752C12.6094 5.9845 12.9167 6.72637 12.9167 7.49992C12.9167 8.27347 12.6094 9.01533 12.0624 9.56231C11.5155 10.1093 10.7736 10.4166 10 10.4166C9.22649 10.4166 8.48463 10.1093 7.93765 9.56231C7.39066 9.01533 7.08337 8.27347 7.08337 7.49992C7.08337 6.72637 7.39066 5.9845 7.93765 5.43752ZM10 6.24992C9.66852 6.24992 9.35058 6.38161 9.11616 6.61603C8.88174 6.85045 8.75004 7.1684 8.75004 7.49992C8.75004 7.83144 8.88174 8.14938 9.11616 8.3838C9.35058 8.61822 9.66852 8.74992 10 8.74992C10.3316 8.74992 10.6495 8.61822 10.8839 8.3838C11.1183 8.14938 11.25 7.83144 11.25 7.49992C11.25 7.1684 11.1183 6.85045 10.8839 6.61603C10.6495 6.38161 10.3316 6.24992 10 6.24992Z" fill="#1D1D1D"/>
<path fill-rule="evenodd" clip-rule="evenodd" d="M8.33316 12.9166C6.56757 12.9166 5.1218 14.2902 5.00718 16.0265C4.97687 16.4857 4.58 16.8334 4.12077 16.8031C3.66153 16.7728 3.31382 16.3759 3.34414 15.9167C3.51618 13.3104 5.68375 11.2499 8.33316 11.2499H11.6665C14.3123 11.2499 16.4779 13.3049 16.655 15.9062C16.6862 16.3654 16.3393 16.763 15.8802 16.7942C15.421 16.8255 15.0234 16.4786 14.9922 16.0194C14.8742 14.2866 13.4298 12.9166 11.6665 12.9166H8.33316Z" fill="#1D1D1D"/>
</g>
<defs>
<clipPath id="clip0_2049_604">
<rect width="20" height="20" fill="white"/>
</clipPath>
</defs>
</svg>
