<svg width="15" height="14" viewBox="0 0 15 14" fill="none" xmlns="http://www.w3.org/2000/svg">
<path fill-rule="evenodd" clip-rule="evenodd" d="M7.29289 0.292893C6.90237 0.683417 6.90237 1.31658 7.29289 1.70711L11.5858 6H1C0.447716 6 0 6.44772 0 7C0 7.55228 0.447716 8 1 8H11.5858L7.29289 12.2929C6.90237 12.6834 6.90237 13.3166 7.29289 13.7071C7.68342 14.0976 8.31658 14.0976 8.70711 13.7071L14.7067 7.70747L14.7092 7.70498C14.804 7.6096 14.8757 7.49986 14.9241 7.38278C14.973 7.26488 15 7.13559 15 7C15 6.72494 14.8889 6.47581 14.7092 6.29502L14.7071 6.29289L8.70711 0.292893C8.31658 -0.0976311 7.68342 -0.0976311 7.29289 0.292893Z" fill="#B2B8C2"/>
</svg>
