<svg width="27" height="27" viewBox="0 0 27 27" fill="none" xmlns="http://www.w3.org/2000/svg">
<path fill-rule="evenodd" clip-rule="evenodd" d="M16.2805 16.6825H13.654V14.0561C13.654 13.8677 13.5792 13.6871 13.4461 13.554C13.3129 13.4208 13.1323 13.346 12.944 13.346C12.7556 13.346 12.575 13.4208 12.4419 13.554C12.3087 13.6871 12.2339 13.8677 12.2339 14.0561V17.3926C12.2339 17.4858 12.2523 17.5781 12.2879 17.6643C12.3236 17.7504 12.3759 17.8287 12.4419 17.8947C12.5078 17.9606 12.5861 18.0129 12.6722 18.0486C12.7584 18.0843 12.8507 18.1026 12.944 18.1026H16.2805C16.4688 18.1026 16.6494 18.0278 16.7826 17.8947C16.9157 17.7615 16.9905 17.5809 16.9905 17.3926C16.9905 17.2042 16.9157 17.0236 16.7826 16.8905C16.6494 16.7573 16.4688 16.6825 16.2805 16.6825Z" fill="url(#paint0_linear_1_1509)"/>
<path fill-rule="evenodd" clip-rule="evenodd" d="M13.5 10.0095C12.1497 10.0095 10.8298 10.4099 9.70711 11.16C8.58442 11.9102 7.70939 12.9764 7.19267 14.2239C6.67595 15.4714 6.54075 16.844 6.80417 18.1683C7.06759 19.4927 7.7178 20.7091 8.67257 21.6639C9.62734 22.6186 10.8438 23.2689 12.1681 23.5323C13.4924 23.7957 14.8651 23.6605 16.1126 23.1438C17.36 22.6271 18.4262 21.752 19.1764 20.6293C19.9266 19.5066 20.327 18.1867 20.327 16.8365C20.327 15.0258 19.6077 13.2894 18.3274 12.0091C17.0471 10.7288 15.3106 10.0095 13.5 10.0095ZM13.5 22.2433C12.4306 22.2433 11.3853 21.9262 10.4961 21.3321C9.60695 20.738 8.91394 19.8935 8.50471 18.9056C8.09548 17.9176 7.98841 16.8305 8.19704 15.7816C8.40566 14.7328 8.92061 13.7694 9.67677 13.0133C10.4329 12.2571 11.3963 11.7422 12.4452 11.5335C13.494 11.3249 14.5811 11.432 15.5691 11.8412C16.5571 12.2504 17.4015 12.9434 17.9956 13.8326C18.5897 14.7217 18.9068 15.7671 18.9068 16.8365C18.9068 17.5465 18.767 18.2496 18.4952 18.9056C18.2235 19.5616 17.8253 20.1576 17.3232 20.6597C16.8211 21.1617 16.2251 21.56 15.5691 21.8317C14.9131 22.1035 14.21 22.2433 13.5 22.2433Z" fill="url(#paint1_linear_1_1509)"/>
<path fill-rule="evenodd" clip-rule="evenodd" d="M26.2899 2.22433H19.2148V0.710075C19.2148 0.521752 19.14 0.341141 19.0068 0.207976C18.8737 0.0748113 18.693 0 18.5047 0C18.3164 0 18.1358 0.0748113 18.0026 0.207976C17.8695 0.341141 17.7946 0.521752 17.7946 0.710075V2.22433H9.20531V0.710075C9.20531 0.52175 9.13049 0.341141 8.99733 0.207976C8.86416 0.0748112 8.68355 0 8.49523 0C8.30691 0 8.1263 0.0748112 7.99313 0.207976C7.85997 0.341141 7.78516 0.52175 7.78516 0.710075V2.22433H0.710075C0.616826 2.22433 0.524491 2.2427 0.438341 2.27838C0.352191 2.31407 0.273913 2.36637 0.207976 2.43231C0.142039 2.49824 0.0897357 2.57652 0.0540512 2.66267C0.0183666 2.74882 0 2.84116 0 2.93441V26.2899C0 26.4782 0.0748116 26.6588 0.207976 26.792C0.341141 26.9251 0.521751 26.9999 0.710075 26.9999H26.2899C26.4782 26.9999 26.6588 26.9251 26.792 26.792C26.9251 26.6588 26.9999 26.4782 26.9999 26.2899V2.93441C26.9999 2.84116 26.9816 2.74882 26.9459 2.66267C26.9102 2.57652 26.8579 2.49824 26.792 2.43231C26.726 2.36637 26.6478 2.31407 26.5616 2.27838C26.4755 2.2427 26.3831 2.22433 26.2899 2.22433ZM1.42015 6.67299V3.64448H7.78516V5.15874C7.78516 5.34706 7.85997 5.52767 7.99313 5.66083C8.1263 5.794 8.30691 5.86881 8.49523 5.86881C8.68355 5.86881 8.86416 5.794 8.99733 5.66083C9.13049 5.52767 9.20531 5.34706 9.20531 5.15874V3.64448H17.7946V5.15874C17.7946 5.34706 17.8695 5.52767 18.0026 5.66083C18.1358 5.794 18.3164 5.86881 18.5047 5.86881C18.693 5.86881 18.8737 5.794 19.0068 5.66083C19.14 5.52767 19.2148 5.34706 19.2148 5.15874V3.64448H25.5798V6.67299H1.42015ZM1.42015 8.09314H25.5798V25.5798H1.42015V8.09314Z" fill="url(#paint2_linear_1_1509)"/>
<defs>
<linearGradient id="paint0_linear_1_1509" x1="13.5" y1="0" x2="13.5" y2="26.9999" gradientUnits="userSpaceOnUse">
<stop stop-color="white"/>
<stop offset="1" stop-color="white" stop-opacity="0.8"/>
</linearGradient>
<linearGradient id="paint1_linear_1_1509" x1="13.5" y1="0" x2="13.5" y2="26.9999" gradientUnits="userSpaceOnUse">
<stop stop-color="white"/>
<stop offset="1" stop-color="white" stop-opacity="0.8"/>
</linearGradient>
<linearGradient id="paint2_linear_1_1509" x1="13.5" y1="0" x2="13.5" y2="26.9999" gradientUnits="userSpaceOnUse">
<stop stop-color="white"/>
<stop offset="1" stop-color="white" stop-opacity="0.8"/>
</linearGradient>
</defs>
</svg>
