<svg width="14" height="14" viewBox="0 0 14 14" fill="none" xmlns="http://www.w3.org/2000/svg">
<path d="M11.0625 0C11.4307 0 11.7292 0.298477 11.7292 0.666667C11.7292 1.03486 11.4307 1.33333 11.0625 1.33333H1.60417C1.45459 1.33333 1.33333 1.45459 1.33333 1.60417V11.0625C1.33333 11.4307 1.03486 11.7292 0.666667 11.7292C0.298477 11.7292 0 11.4307 0 11.0625V1.60417C0 0.71821 0.71821 0 1.60417 0H11.0625Z" fill="#00C27C"/>
<path fill-rule="evenodd" clip-rule="evenodd" d="M4.27083 2.66667C3.38488 2.66667 2.66667 3.38488 2.66667 4.27083V12.3958C2.66667 13.2818 3.38488 14 4.27083 14H12.3958C13.2818 14 14 13.2818 14 12.3958V4.27083C14 3.38488 13.2818 2.66667 12.3958 2.66667H4.27083ZM4 4.27083C4 4.12126 4.12126 4 4.27083 4H12.3958C12.5454 4 12.6667 4.12126 12.6667 4.27083V12.3958C12.6667 12.5454 12.5454 12.6667 12.3958 12.6667H4.27083C4.12126 12.6667 4 12.5454 4 12.3958V4.27083Z" fill="#00C27C"/>
</svg>
