<svg width="26" height="26" viewBox="0 0 26 26" fill="none" xmlns="http://www.w3.org/2000/svg">
<path d="M22.7495 26H3.24997C1.45465 26 0 24.5453 0 22.75V3.25025C0 1.45498 1.45468 0 3.24997 0H22.7495C24.5448 0 26 1.45496 26 3.25025V22.75C26 24.5453 24.5448 26 22.7495 26ZM24.374 3.25025C24.374 2.3532 23.6461 1.62576 22.7495 1.62576H3.24997C2.35181 1.62576 1.62396 2.3532 1.62396 3.25025V22.75C1.62396 23.6482 2.35181 24.376 3.24997 24.376H22.7495C23.6461 24.376 24.374 23.6481 24.374 22.75L24.374 3.25025ZM16.3976 6.2694L14.2409 10.2408C13.6665 11.3167 13.3151 12.0319 13.1862 12.3874H13.1502C12.7709 11.525 11.6997 9.4854 9.93934 6.2694H7.91334L11.6818 12.7444H8.59105V14.1753H12.2145V16.1473H8.59105V17.5967H12.2145V20.4685H14.0114V17.5967H17.5079V16.1472H14.0113V14.1752H17.5079V12.7444H14.5075L18.3141 6.26938L16.3976 6.2694Z" fill="url(#paint0_linear_1_1531)"/>
<defs>
<linearGradient id="paint0_linear_1_1531" x1="13" y1="0" x2="13" y2="26" gradientUnits="userSpaceOnUse">
<stop stop-color="white"/>
<stop offset="1" stop-color="white" stop-opacity="0.8"/>
</linearGradient>
</defs>
</svg>
