<svg width="12" height="12" viewBox="0 0 12 12" fill="none" xmlns="http://www.w3.org/2000/svg">
<path d="M7.26236 11.5C7.26236 11.6326 7.20968 11.7598 7.11591 11.8536C7.02215 11.9473 6.89497 12 6.76236 12H5.01236C4.87975 12 4.75257 11.9473 4.65881 11.8536C4.56504 11.7598 4.51236 11.6326 4.51236 11.5V8C4.51236 7.86739 4.56504 7.74021 4.65881 7.64645C4.75257 7.55268 4.87975 7.5 5.01236 7.5C5.14497 7.5 5.27214 7.55268 5.36591 7.64645C5.45968 7.74021 5.51236 7.86739 5.51236 8V11H6.76236C6.89497 11 7.02215 11.0527 7.11591 11.1464C7.20968 11.2402 7.26236 11.3674 7.26236 11.5ZM3.30298 7.59313C3.24955 7.55496 3.18913 7.52769 3.12516 7.51288C3.06119 7.49806 2.99493 7.49599 2.93016 7.50679C2.86539 7.51758 2.80338 7.54103 2.74767 7.57579C2.69196 7.61055 2.64365 7.65594 2.60548 7.70938L1.76236 8.89L0.919235 7.70938C0.882429 7.65275 0.834531 7.60416 0.778433 7.56655C0.722334 7.52894 0.659197 7.50308 0.592831 7.49054C0.526466 7.478 0.458247 7.47904 0.392293 7.49359C0.326339 7.50814 0.264016 7.5359 0.209085 7.57519C0.154154 7.61449 0.107754 7.66451 0.072685 7.72223C0.0376158 7.77995 0.0146044 7.84418 0.00503948 7.91104C-0.00452547 7.9779 -0.000445899 8.046 0.0170324 8.11124C0.0345107 8.17648 0.0650252 8.2375 0.106735 8.29062L1.14798 9.75L0.105485 11.2094C0.0353256 11.3173 0.00950948 11.4482 0.0334125 11.5747C0.0573155 11.7012 0.129095 11.8136 0.233804 11.8885C0.338514 11.9634 0.468082 11.995 0.595529 11.9768C0.722976 11.9586 0.838478 11.8919 0.917985 11.7906L1.76236 10.61L2.60548 11.7906C2.68499 11.8919 2.80049 11.9586 2.92794 11.9768C3.05539 11.995 3.18496 11.9634 3.28966 11.8885C3.39437 11.8136 3.46615 11.7012 3.49006 11.5747C3.51396 11.4482 3.48814 11.3173 3.41798 11.2094L2.37673 9.75L3.41923 8.29062C3.4574 8.23719 3.48467 8.17677 3.49948 8.1128C3.5143 8.04883 3.51637 7.98257 3.50557 7.9178C3.49478 7.85303 3.47133 7.79102 3.43657 7.73531C3.40181 7.67961 3.35642 7.63129 3.30298 7.59313ZM9.48673 9.20687C9.23673 9.13437 8.97798 9.06 8.83361 8.96688C8.75548 8.91562 8.75673 8.90438 8.76361 8.84813C8.76455 8.80268 8.77639 8.75811 8.79814 8.7182C8.8199 8.67828 8.85092 8.64417 8.88861 8.61875C9.17611 8.42375 9.84736 8.51125 10.1274 8.58375C10.2557 8.61748 10.3921 8.59887 10.5067 8.532C10.6212 8.46513 10.7046 8.35549 10.7383 8.22719C10.772 8.09889 10.7534 7.96244 10.6865 7.84787C10.6197 7.7333 10.51 7.64998 10.3817 7.61625C10.2499 7.58187 9.06923 7.29 8.32986 7.78875C8.17395 7.8941 8.04306 8.03237 7.94641 8.19382C7.84976 8.35526 7.7897 8.53595 7.77048 8.72313C7.64548 9.71563 8.62361 9.99875 9.20798 10.1675C9.96173 10.3856 10.028 10.475 10.0067 10.6419C9.98736 10.7925 9.92798 10.85 9.87236 10.8875C9.58486 11.0787 8.92486 10.9844 8.65111 10.9094C8.52306 10.8738 8.38613 10.8906 8.27044 10.956C8.21316 10.9884 8.16282 11.0317 8.12229 11.0836C8.08176 11.1354 8.05184 11.1947 8.03424 11.2581C8.01663 11.3215 8.01168 11.3878 8.01968 11.4531C8.02768 11.5184 8.04847 11.5815 8.08085 11.6388C8.14625 11.7545 8.25493 11.8394 8.38298 11.875C8.69288 11.9566 9.01189 11.9986 9.33236 12C9.69611 12 10.1011 11.9375 10.4255 11.7212C10.5855 11.6148 10.7199 11.4743 10.8192 11.3097C10.9184 11.1451 10.9799 10.9606 10.9992 10.7694C11.1374 9.6875 10.1049 9.38562 9.48673 9.20687ZM0.0123596 5.5V1C0.0123596 0.734784 0.117716 0.48043 0.305253 0.292893C0.492789 0.105357 0.747143 1.54599e-07 1.01236 1.54599e-07H7.01236C7.07804 -5.14929e-05 7.14309 0.0128379 7.20378 0.037932C7.26448 0.063026 7.31964 0.099833 7.36611 0.14625L10.8661 3.64625C10.9125 3.69272 10.9493 3.74788 10.9744 3.80858C10.9995 3.86927 11.0124 3.93432 11.0124 4V5.5C11.0124 5.63261 10.9597 5.75979 10.8659 5.85355C10.7721 5.94732 10.645 6 10.5124 6C10.3798 6 10.2526 5.94732 10.1588 5.85355C10.065 5.75979 10.0124 5.63261 10.0124 5.5V4.5H7.01236C6.87975 4.5 6.75257 4.44732 6.65881 4.35355C6.56504 4.25979 6.51236 4.13261 6.51236 4V1H1.01236V5.5C1.01236 5.63261 0.959681 5.75979 0.865913 5.85355C0.772145 5.94732 0.644968 6 0.51236 6C0.379751 6 0.252575 5.94732 0.158806 5.85355C0.0650382 5.75979 0.0123596 5.63261 0.0123596 5.5ZM7.51236 3.5H9.30486L7.51236 1.70688V3.5Z" fill="#1D1D1D"/>
</svg>
