<svg width="12" height="12" viewBox="0 0 12 12" fill="none" xmlns="http://www.w3.org/2000/svg">
<path d="M5.75 7.5H4.75C4.61739 7.5 4.49021 7.55268 4.39645 7.64645C4.30268 7.74021 4.25 7.86739 4.25 8V11.5C4.25 11.6326 4.30268 11.7598 4.39645 11.8536C4.49021 11.9473 4.61739 12 4.75 12C4.88261 12 5.00979 11.9473 5.10355 11.8536C5.19732 11.7598 5.25 11.6326 5.25 11.5V11H5.75C6.21413 11 6.65925 10.8156 6.98744 10.4874C7.31563 10.1592 7.5 9.71413 7.5 9.25C7.5 8.78587 7.31563 8.34075 6.98744 8.01256C6.65925 7.68437 6.21413 7.5 5.75 7.5ZM5.75 10H5.25V8.5H5.75C5.94891 8.5 6.13968 8.57902 6.28033 8.71967C6.42098 8.86032 6.5 9.05109 6.5 9.25C6.5 9.44891 6.42098 9.63968 6.28033 9.78033C6.13968 9.92098 5.94891 10 5.75 10ZM11.75 10V11.0544C11.75 11.1832 11.7003 11.307 11.6112 11.4C11.4372 11.5874 11.2266 11.7373 10.9925 11.8405C10.7585 11.9436 10.5058 11.9979 10.25 12C9.14688 12 8.25 10.9906 8.25 9.75C8.25 8.50937 9.14688 7.5 10.25 7.5C10.6176 7.50116 10.9764 7.61263 11.28 7.82C11.3899 7.89459 11.4657 8.00979 11.4906 8.14024C11.5156 8.2707 11.4877 8.40573 11.4131 8.51562C11.3385 8.62552 11.2233 8.70129 11.0929 8.72626C10.9624 8.75122 10.8274 8.72334 10.7175 8.64875C10.5803 8.55294 10.4173 8.50107 10.25 8.5C9.69875 8.5 9.25 9.0625 9.25 9.75C9.25 10.4375 9.69875 11 10.25 11C10.4304 10.9979 10.6055 10.9386 10.75 10.8306V10.5C10.6174 10.5 10.4902 10.4473 10.3964 10.3536C10.3027 10.2598 10.25 10.1326 10.25 10C10.25 9.86739 10.3027 9.74021 10.3964 9.64645C10.4902 9.55268 10.6174 9.5 10.75 9.5H11.25C11.3826 9.5 11.5098 9.55268 11.6036 9.64645C11.6973 9.74021 11.75 9.86739 11.75 10ZM3.25 8V10.375C3.25 10.806 3.07879 11.2193 2.77405 11.524C2.4693 11.8288 2.05598 12 1.625 12C1.19402 12 0.780698 11.8288 0.475951 11.524C0.171205 11.2193 0 10.806 0 10.375C0 10.2424 0.0526784 10.1152 0.146447 10.0214C0.240215 9.92768 0.367392 9.875 0.5 9.875C0.632608 9.875 0.759785 9.92768 0.853553 10.0214C0.947321 10.1152 1 10.2424 1 10.375C1 10.5408 1.06585 10.6997 1.18306 10.8169C1.30027 10.9342 1.45924 11 1.625 11C1.79076 11 1.94973 10.9342 2.06694 10.8169C2.18415 10.6997 2.25 10.5408 2.25 10.375V8C2.25 7.86739 2.30268 7.74021 2.39645 7.64645C2.49021 7.55268 2.61739 7.5 2.75 7.5C2.88261 7.5 3.00979 7.55268 3.10355 7.64645C3.19732 7.74021 3.25 7.86739 3.25 8ZM11.6038 3.64625L8.10375 0.14625C8.05728 0.099833 8.00212 0.063026 7.94143 0.037932C7.88073 0.0128379 7.81568 -5.14929e-05 7.75 1.54599e-07H1.75C1.48478 1.54599e-07 1.23043 0.105357 1.04289 0.292893C0.855357 0.48043 0.75 0.734784 0.75 1V5.5C0.75 5.63261 0.802679 5.75979 0.896447 5.85355C0.990215 5.94732 1.11739 6 1.25 6C1.38261 6 1.50979 5.94732 1.60355 5.85355C1.69732 5.75979 1.75 5.63261 1.75 5.5V1H7.25V4C7.25 4.13261 7.30268 4.25979 7.39645 4.35355C7.49021 4.44732 7.61739 4.5 7.75 4.5H10.75V5.5C10.75 5.63261 10.8027 5.75979 10.8964 5.85355C10.9902 5.94732 11.1174 6 11.25 6C11.3826 6 11.5098 5.94732 11.6036 5.85355C11.6973 5.75979 11.75 5.63261 11.75 5.5V4C11.7501 3.93432 11.7372 3.86927 11.7121 3.80858C11.687 3.74788 11.6502 3.69272 11.6038 3.64625ZM8.25 3.5V1.70688L10.0431 3.5H8.25Z" fill="#1D1D1D"/>
</svg>
