<svg width="30" height="24" viewBox="0 0 30 24" fill="none" xmlns="http://www.w3.org/2000/svg">
<path d="M1.26449 10.9473C1.26449 5.59999 5.61709 1.26316 10.9839 1.26316C13.7762 1.26316 16.2857 2.4421 18.0605 4.32064L18.9577 3.42671C16.9553 1.31822 14.1272 0 10.9871 0C4.9182 0 0 4.90039 0 10.9473C0 16.434 4.05678 20.9651 9.34231 21.7587L9.71938 20.6315L9.76164 20.5441C4.97021 19.9449 1.26449 15.8801 1.26449 10.9473Z" fill="url(#paint0_linear_1_1476)"/>
<path d="M12.2515 10.9473C12.2515 10.5749 12.0857 10.2445 11.8289 10.0113V5.05262H10.5611V9.76192C9.21213 10.3061 9.88176 11.5627 9.88176 11.5627L6.86518 14.6494L7.83711 15.4591L11.013 12.2073C11.7021 12.1911 12.2515 11.634 12.2515 10.9473Z" fill="url(#paint1_linear_1_1476)"/>
<path fill-rule="evenodd" clip-rule="evenodd" d="M25.7742 10.9506C25.7742 12.7126 24.8673 14.2607 23.4955 15.1644C27.263 16.3466 30 19.8543 30 24H28.7323C28.7323 19.5822 25.1371 16 20.7032 16C16.2693 16 12.6742 19.5822 12.6742 24H11.4064C11.4064 19.8543 14.1402 16.3466 17.9109 15.1644C16.5391 14.2607 15.6322 12.7126 15.6322 10.9506C15.6322 8.16198 17.9012 5.89801 20.7032 5.89801C23.5052 5.89801 25.7742 8.15874 25.7742 10.9506ZM16.9 10.9474C16.9 13.0397 18.6033 14.7369 20.7032 14.7369C22.8031 14.7369 24.5064 13.0397 24.5064 10.9474C24.5064 8.85509 22.8031 7.15793 20.7032 7.15793C18.6033 7.15793 16.9 8.85509 16.9 10.9474Z" fill="url(#paint2_linear_1_1476)"/>
<defs>
<linearGradient id="paint0_linear_1_1476" x1="15" y1="0" x2="15" y2="24" gradientUnits="userSpaceOnUse">
<stop stop-color="white"/>
<stop offset="1" stop-color="white" stop-opacity="0.8"/>
</linearGradient>
<linearGradient id="paint1_linear_1_1476" x1="15" y1="0" x2="15" y2="24" gradientUnits="userSpaceOnUse">
<stop stop-color="white"/>
<stop offset="1" stop-color="white" stop-opacity="0.8"/>
</linearGradient>
<linearGradient id="paint2_linear_1_1476" x1="15" y1="0" x2="15" y2="24" gradientUnits="userSpaceOnUse">
<stop stop-color="white"/>
<stop offset="1" stop-color="white" stop-opacity="0.8"/>
</linearGradient>
</defs>
</svg>
