<svg width="15" height="15" viewBox="0 0 15 15" fill="none" xmlns="http://www.w3.org/2000/svg">
<path d="M2.43834 9.7062C2.12724 9.7062 1.875 9.95731 1.875 10.2653C1.875 10.5734 2.12724 10.8245 2.43834 10.8245H5.06334C5.37444 10.8245 5.625 10.5734 5.625 10.2653C5.625 9.95731 5.37276 9.7062 5.06334 9.7062H2.43834ZM6.375 7.27881C6.375 6.96911 6.12276 6.71968 5.81166 6.71968H2.43834C2.12724 6.71968 1.875 6.97079 1.875 7.27881C1.875 7.58852 2.12724 7.83795 2.43834 7.83795H5.81334C6.12276 7.83962 6.375 7.58852 6.375 7.27881ZM13.5 0H1.5C0.672646 0 0 0.66795 0 1.49326V13.4394C0 14.2647 0.670964 14.9326 1.5 14.9326H9V13.811H1.875C1.46132 13.811 1.125 13.4762 1.125 13.0644V1.8649C1.125 1.45308 1.46132 1.11827 1.875 1.11827H13.125C13.5387 1.11827 13.875 1.45308 13.875 1.8649V8.9579H15V1.49159C15 0.66795 14.3274 0 13.5 0ZM12 4.29229C12 3.98259 11.7478 3.73315 11.4383 3.73315H2.43834C2.12724 3.73315 1.875 3.98426 1.875 4.29229C1.875 4.60199 2.12724 4.85143 2.43834 4.85143H11.4383C11.7478 4.8531 12 4.60199 12 4.29229ZM12.8475 12.1838C13.2545 11.6515 13.5 10.9869 13.5 10.2653C13.5 8.5126 12.0723 7.09299 10.3133 7.09299C8.55269 7.09299 7.12668 8.51427 7.12668 10.2653C7.12668 12.0164 8.55437 13.4377 10.3133 13.4377C10.9423 13.4377 11.5258 13.2535 12.0202 12.9422L13.9221 14.8355C14.1424 15.0548 14.4972 15.0548 14.7175 14.8355C14.9378 14.6162 14.9378 14.263 14.7175 14.0437L12.8475 12.1838ZM11.8419 11.5209C11.6317 11.7787 11.5207 11.8373 11.3963 11.926C11.0835 12.1286 10.7136 12.2491 10.3133 12.2491C9.20347 12.2491 8.30549 11.3451 8.32231 10.2369C8.33744 9.16883 9.21356 8.29664 10.2864 8.28158C11.3997 8.26651 12.3061 9.16046 12.3061 10.2653C12.3044 10.7441 12.1261 11.1777 11.8419 11.5209Z" fill="#1D1D1D" fill-opacity="0.6"/>
</svg>
