<svg width="24" height="22" viewBox="0 0 24 22" fill="none" xmlns="http://www.w3.org/2000/svg">
<path d="M0.840924 22H3.86825C4.33196 22 4.70917 21.6176 4.70917 21.1434C4.70917 20.6691 4.33316 20.2855 3.86825 20.2855H1.68185V1.71569H8.16056L10.9476 4.69853C11.1062 4.86765 11.326 4.96446 11.5555 4.96446L19.3881 4.97794V7.11274C19.3881 7.58701 19.7641 7.97059 20.229 7.97059C20.6939 7.97059 21.0699 7.58701 21.0699 7.11274V4.12255C21.0699 3.64951 20.6939 3.26593 20.2302 3.26471L11.9183 3.25L9.13003 0.265931C8.97145 0.0955883 8.75041 0 8.52096 0H0.840924C0.376013 0 0 0.383578 0 0.857843V21.1422C0 21.6164 0.376013 22 0.840924 22Z" fill="#00C27C"/>
<path d="M14.4122 16.6324H13.0764C12.6115 16.6324 12.2355 16.2488 12.2355 15.7745C12.2355 15.3003 12.6115 14.9167 13.0764 14.9167H14.4122V13.5539C14.4122 13.0796 14.7882 12.696 15.2531 12.696C15.7181 12.696 16.0941 13.0796 16.0941 13.5539V14.9167H17.4312C17.8961 14.9167 18.2721 15.3003 18.2721 15.7745C18.2721 16.2488 17.8949 16.6324 17.4312 16.6324H16.0941V17.9963C16.0941 18.4693 15.7181 18.8541 15.2531 18.8541C14.7882 18.8541 14.4122 18.4705 14.4122 17.9963V16.6324Z" fill="#00C27C"/>
<path fill-rule="evenodd" clip-rule="evenodd" d="M7.34731 22H23.1591C23.624 22 24 21.6164 24 21.1434V10.4068C24 9.93257 23.624 9.54899 23.1591 9.54899H7.34731C6.8824 9.54899 6.50638 9.93257 6.50638 10.4068V21.1421C6.50638 21.6164 6.8824 22 7.34731 22ZM22.3182 20.2843H8.18823V11.2635H22.3182V20.2843Z" fill="#00C27C"/>
</svg>
