<svg width="24" height="24" viewBox="0 0 24 24" fill="none" xmlns="http://www.w3.org/2000/svg">
<path fill-rule="evenodd" clip-rule="evenodd" d="M22.2892 0H1.71082C0.751575 0 0 0.604459 0 1.37534V17.3983C0 18.1692 0.751575 18.7736 1.71082 18.7736V17.3291C1.61468 17.3291 1.54494 17.3087 1.50312 17.2904V1.48326C1.54497 1.46492 1.61468 1.44447 1.71082 1.44447H22.2892C22.3853 1.44447 22.4551 1.46492 22.4969 1.48326V17.2904C22.4551 17.3087 22.3853 17.3291 22.2892 17.3291V18.7736C23.2484 18.7736 24 18.1692 24 17.3983V1.37536C24 0.604459 23.2484 0 22.2892 0ZM22.7725 21.2705L19.9512 19.9156L20.6851 18.8901C20.7711 18.7697 20.8171 18.6271 20.8172 18.4811V16.3362C20.8172 14.75 19.4976 13.5072 17.8132 13.5072C16.1288 13.5072 14.8092 14.75 14.8092 16.3362V17.3293H8.96257V16.3362C8.96257 14.75 7.64292 13.5072 5.95853 13.5072C4.27414 13.5072 2.95449 14.75 2.95449 16.3362V18.481C2.95429 18.631 3.00306 18.7773 3.09394 18.8993L3.84111 19.91L0.897255 21.2649C0.769373 21.3238 0.661419 21.4162 0.58584 21.5315C0.510261 21.6468 0.470136 21.7803 0.470093 21.9166V23.2778C0.470093 23.677 0.806234 24.0001 1.22167 24.0001H10.5817C10.9971 24.0001 11.3332 23.677 11.3332 23.2778V21.9166C11.3332 21.643 11.1725 21.3926 10.9178 21.2706L8.09652 19.9157L8.83047 18.8902C8.85644 18.8534 8.87886 18.8144 8.89743 18.7738H14.8743C14.8946 18.8179 14.9195 18.86 14.9486 18.8993L15.6958 19.91L12.7519 21.2649C12.6241 21.3238 12.5161 21.4163 12.4405 21.5316C12.3649 21.6469 12.3248 21.7804 12.3248 21.9166V23.2779C12.3248 23.6771 12.6609 24.0001 13.0763 24.0001H22.4363C22.8517 24.0001 23.1879 23.6771 23.1879 23.2779V21.9166C23.1879 21.6429 23.0271 21.3926 22.7725 21.2705ZM9.83008 22.3631V22.5556H1.97321V22.3715L5.29578 20.8424C5.39469 20.797 5.48203 20.7312 5.55164 20.6498C5.62126 20.5684 5.67146 20.4733 5.69871 20.3713C5.72634 20.2695 5.73034 20.163 5.71043 20.0596C5.69052 19.9561 5.64718 19.8581 5.58349 19.7725L4.45761 18.2504V16.3362C4.45761 15.5597 5.11671 14.9517 5.95853 14.9517C6.80036 14.9517 7.45945 15.5597 7.45945 16.3362V18.2568L6.36882 19.7816C6.30786 19.8667 6.26662 19.9634 6.24789 20.0651C6.22915 20.1668 6.23335 20.2712 6.2602 20.3713C6.31524 20.5737 6.45764 20.7437 6.65212 20.8368L9.83008 22.3631ZM21.6848 22.5556H13.8279V22.3715L17.1505 20.8424C17.2494 20.7969 17.3367 20.7312 17.4063 20.6498C17.4759 20.5684 17.5261 20.4733 17.5534 20.3713C17.581 20.2694 17.585 20.163 17.5651 20.0595C17.5452 19.9561 17.5019 19.8581 17.4382 19.7725L16.3123 18.2504V16.3362C16.3123 15.5597 16.9714 14.9517 17.8132 14.9517C18.655 14.9517 19.3141 15.5597 19.3141 16.3362V18.2568L18.2235 19.7816C18.1626 19.8667 18.1213 19.9634 18.1026 20.0651C18.0838 20.1668 18.088 20.2712 18.1149 20.3713C18.1699 20.5737 18.3123 20.7437 18.5068 20.8368L21.6848 22.3631L21.6848 22.5556ZM13.5408 7.25615H17V8.95879H13.5408V12.2149H11.7319V8.95879H8.27271V7.25615H11.7319V4H13.5408V7.25615Z" fill="#00C27C"/>
</svg>
