<svg width="24" height="24" viewBox="0 0 24 24" fill="none" xmlns="http://www.w3.org/2000/svg">
<path fill-rule="evenodd" clip-rule="evenodd" d="M16.7453 0H1.22252C0.546915 0 -1.90735e-06 0.544726 -1.90735e-06 1.21762V22.7824C-1.90735e-06 23.4553 0.546915 24 1.22252 24H16.7453C17.4209 24 17.9678 23.4553 17.9678 22.7824V14.243C17.9678 14.243 17.6783 13.8425 17.3727 13.8425C17.067 13.8425 16.7453 14.243 16.7453 14.243V22.7824H9.41019V4.46996C9.41019 4.21362 9.20107 3.57276 8.58981 3.25234L3.98928 1.21762H16.7453V9.75701C16.7453 9.75701 17.0992 10.1575 17.437 10.1575C17.7105 10.1575 17.9678 9.75701 17.9678 9.75701V1.21762C17.9678 0.544726 17.4209 0 16.7453 0ZM8.17158 22.7824H1.22252V1.21762L8.17158 4.46996V22.7824Z" fill="url(#paint0_linear_1_1498)"/>
<path d="M12.5952 12.6088H21.9732L20.3324 14.243C20.3324 14.243 19.5925 14.9479 20.3324 15.4606C20.7668 15.765 21.1367 15.4446 21.1367 15.4446L24 12.1922V11.7917L21.1528 8.53938C21.1528 8.53938 20.7185 8.26702 20.3324 8.53938C19.6086 9.05206 20.3324 9.757 20.3324 9.757L21.9571 11.3912H12.5952C12.5952 11.3912 12.2091 11.4873 12.193 11.7917C12.1448 12.6248 12.5952 12.6088 12.5952 12.6088Z" fill="url(#paint1_linear_1_1498)"/>
<defs>
<linearGradient id="paint0_linear_1_1498" x1="12" y1="0" x2="12" y2="24" gradientUnits="userSpaceOnUse">
<stop stop-color="white"/>
<stop offset="1" stop-color="white" stop-opacity="0.8"/>
</linearGradient>
<linearGradient id="paint1_linear_1_1498" x1="12" y1="0" x2="12" y2="24" gradientUnits="userSpaceOnUse">
<stop stop-color="white"/>
<stop offset="1" stop-color="white" stop-opacity="0.8"/>
</linearGradient>
</defs>
</svg>
