<svg width="26" height="26" viewBox="0 0 26 26" fill="none" xmlns="http://www.w3.org/2000/svg">
<path d="M25.9697 19.9537L25.5604 17.4298C25.4722 16.8726 25.1861 16.3652 24.7539 15.9994C24.3217 15.6336 23.7721 15.4336 23.2043 15.4356H16.6156L16.0271 9.02656C17.1346 8.04804 18.299 6.76868 18.299 5.26537C18.299 2.36225 15.9217 0 12.9996 0C10.0774 0 7.7008 2.36225 7.7008 5.26537C7.7008 6.76868 8.86483 8.04804 9.97238 9.02656L9.38389 15.4356H2.79541C2.22778 15.4336 1.67817 15.6335 1.24606 15.9993C0.813948 16.365 0.527896 16.8724 0.439678 17.4295L0.0303819 19.954C-0.024573 20.2929 -0.00480805 20.6397 0.088311 20.9702C0.18143 21.3008 0.345682 21.6073 0.569716 21.8687C0.793749 22.13 1.07222 22.3399 1.38588 22.4838C1.69955 22.6277 2.04092 22.7022 2.38641 22.7022H23.6133C23.9588 22.7022 24.3002 22.6277 24.6139 22.4838C24.9276 22.3398 25.2061 22.13 25.4301 21.8687C25.6542 21.6074 25.8185 21.3008 25.9116 20.9703C26.0048 20.6397 26.0246 20.293 25.9697 19.954V19.9537ZM8.98636 5.26537C8.98636 3.06625 10.7869 1.27761 12.9999 1.27761C15.2129 1.27761 17.0134 3.06625 17.0134 5.26537C17.0134 6.36288 15.9047 7.45046 14.9387 8.27666C14.8609 8.34294 14.8002 8.42675 14.7616 8.5211C14.7231 8.61544 14.7078 8.71758 14.7171 8.81898L15.3162 15.3465H10.6839L11.2827 8.81782C11.292 8.71643 11.2768 8.6143 11.2383 8.51996C11.1998 8.42561 11.1391 8.34179 11.0614 8.27549C10.0951 7.45046 8.98636 6.36288 8.98636 5.26537ZM24.4514 21.0401C24.348 21.1607 24.2196 21.2575 24.0749 21.3238C23.9302 21.3901 23.7727 21.4244 23.6133 21.4243H2.38641C2.2271 21.4243 2.06968 21.39 1.92504 21.3236C1.78039 21.2573 1.65197 21.1605 1.54864 21.04C1.44532 20.9196 1.36955 20.7782 1.32658 20.6258C1.28361 20.4734 1.27446 20.3135 1.29976 20.1572L1.70906 17.6327C1.74975 17.3758 1.88167 17.1418 2.08094 16.9732C2.28021 16.8045 2.53365 16.7123 2.79541 16.7132H23.2043C23.4662 16.7123 23.7197 16.8046 23.919 16.9733C24.1183 17.142 24.2503 17.376 24.291 17.633L24.7003 20.1569C24.7256 20.3133 24.7164 20.4732 24.6734 20.6257C24.6304 20.7782 24.5547 20.9196 24.4514 21.0401ZM22.5052 24.7224H3.49396C3.32344 24.7224 3.15991 24.7897 3.03934 24.9095C2.91876 25.0293 2.85103 25.1918 2.85103 25.3612C2.85103 25.5306 2.91876 25.6931 3.03934 25.8129C3.15991 25.9327 3.32344 26 3.49396 26H22.5052C22.6757 26 22.8393 25.9327 22.9598 25.8129C23.0804 25.6931 23.1481 25.5306 23.1481 25.3612C23.1481 25.1918 23.0804 25.0293 22.9598 24.9095C22.8393 24.7897 22.6757 24.7224 22.5052 24.7224Z" fill="url(#paint0_linear_1_1520)"/>
<defs>
<linearGradient id="paint0_linear_1_1520" x1="13" y1="0" x2="13" y2="26" gradientUnits="userSpaceOnUse">
<stop stop-color="white"/>
<stop offset="1" stop-color="white" stop-opacity="0.8"/>
</linearGradient>
</defs>
</svg>
