<?xml version="1.0" standalone="no"?><!DOCTYPE svg PUBLIC "-//W3C//DTD SVG 1.1//EN" "http://www.w3.org/Graphics/SVG/1.1/DTD/svg11.dtd"><svg t="1755598844597" class="icon" viewBox="0 0 1024 1024" version="1.1" xmlns="http://www.w3.org/2000/svg" p-id="10462" xmlns:xlink="http://www.w3.org/1999/xlink" width="200" height="200"><path d="M662.790477 172.432029H247.875906c-21.554004 0-37.719506 16.165503-37.719506 37.719507 0 21.554004 16.165503 37.719506 37.719506 37.719506h420.303072c21.554004 0 37.719506-16.165503 37.719506-37.719506-5.388501-21.554004-21.554004-37.719506-43.108007-37.719507zM549.631957 366.418062H247.875906c-21.554004 0-37.719506 16.165503-37.719506 37.719507 0 21.554004 16.165503 37.719506 37.719506 37.719506h307.144552c21.554004 0 37.719506-16.165503 37.719507-37.719506-5.388501-21.554004-21.554004-37.719506-43.108008-37.719507z m172.43203 145.489525c145.489525-5.388501 269.425046 107.770018 274.813547 258.648044-5.388501 145.489525-129.324022 258.648044-274.813547 253.259543-145.489525 5.388501-269.425046-107.770018-274.813547-258.648044 10.777002-145.489525 129.324022-258.648044 274.813547-253.259543z m21.554004-511.907587c70.050512 0 129.324022 53.885009 134.712522 123.935521v269.425046c-5.388501 21.554004-21.554004 37.719506-43.108007 37.719506s-37.719506-16.165503-37.719506-37.719506v-269.425046c0-32.331006-26.942505-53.885009-59.27351-53.885009H161.659891c-32.331006 0-53.885009 21.554004-59.27351 53.885009v749.001628c0 32.331006 26.942505 53.885009 59.27351 53.885009h237.094041c21.554004 0 37.719506 16.165503 37.719506 32.331005s-16.165503 37.719506-32.331005 37.719507H161.659891c-70.050512 0-129.324022-53.885009-134.712523-123.935521V123.935521C26.947368 53.885009 86.220879 0 161.659891 0h581.9581z m-21.554004 571.181097c-113.158519-5.388501-204.763035 86.216015-210.151536 199.374534 5.388501 113.158519 96.993017 199.374534 210.151536 199.374534 113.158519 5.388501 204.763035-86.216015 210.151536-199.374534 0-113.158519-96.993017-204.763035-210.151536-199.374534z m86.216015 161.655028c16.165503 0 32.331006 10.777002 37.719506 26.942504 0 16.165503-16.165503 32.331006-37.719506 26.942505h-172.43203c-16.165503 0-32.331006-10.777002-37.719506-26.942505 0-16.165503 16.165503-32.331006 37.719506-26.942504h172.43203zM350.257424 565.792596c21.554004 0 37.719506 16.165503 37.719506 37.719507s-16.165503 37.719506-37.719506 37.719506H247.875906c-21.554004 0-37.719506-16.165503-37.719506-37.719506 0-21.554004 16.165503-37.719506 37.719506-37.719507H350.257424z m0 0z" fill="#606060" p-id="10463"></path></svg>