<?xml version="1.0" standalone="no"?><!DOCTYPE svg PUBLIC "-//W3C//DTD SVG 1.1//EN" "http://www.w3.org/Graphics/SVG/1.1/DTD/svg11.dtd"><svg t="1755598722228" class="icon" viewBox="0 0 1024 1024" version="1.1" xmlns="http://www.w3.org/2000/svg" p-id="7680" xmlns:xlink="http://www.w3.org/1999/xlink" width="200" height="200"><path d="M964.305252 92.626691c12.251952-16.544778 6.076926-35.075087-0.316533-46.096219-10.512324-18.081668-31.683466-35.280441-45.536399-40.046761-12.898099-4.456325-35.22943-7.142939-50.277867 9.400532-5.965747 6.545187-16.35512 19.477294-22.844063 27.483507L943.204741 120.191294c-0.001308 0 8.904803-11.021132 21.100511-27.564603M620.78365 350.576906c-3.760474 12.20094-13.706438 70.819865-14.111915 88.718414-0.362314 16.90186 5.218884 22.844063 21.469365 18.593092 15.864623-4.133252 68.92197-29.644308 85.4589-40.742612 7.936889-5.307828 15.779604-13.12569 20.973636-19.7729 8.185408-10.463928 178.500225-237.481463 178.500225-237.481463l-97.828572-76.854936S645.944165 307.321643 633.789005 324.197343c-6.955896 9.681749-10.147394 16.998651-13.005355 26.379563" fill="#8A8A8A" p-id="7681"></path><path d="M934.609933 323.849418v578.699693c0 33.205968-42.289965 75.495933-75.495933 75.495933H163.931167c-33.200736 0-75.495933-42.289965-75.495933-75.495933V121.269078c0-33.195504 42.295197-75.494625 75.495933-75.494625h505.870754L762.531944 1.077785H163.931167C97.555855 1.077785 43.738565 54.893767 43.738565 121.269078v781.280033c0 66.380544 53.81729 120.196526 120.192602 120.196526H859.114c66.380544 0 120.195218-53.815982 120.195217-120.196526V241.72197l-44.699284 82.127448z m0 0" fill="#8A8A8A" p-id="7682"></path><path d="M273.735704 778.555487v-6.458859c0-16.981647 12.46123-30.722093 27.851053-30.722093h419.882117c15.381974 0 27.845821 13.750909 27.84582 30.722093v6.458859c0 16.981647-12.469078 30.732557-27.84582 30.732557H301.586757c-15.389822 0.001308-27.851053-13.758757-27.851053-30.732557z m0 0M273.735704 616.554261v-6.453627c0-16.982955 12.46123-30.727325 27.851053-30.727325h419.882117c15.381974 0 27.845821 13.753525 27.84582 30.727325v6.453627c0 16.982955-12.469078 30.732557-27.84582 30.732557H301.586757c-15.389822 0-27.851053-13.749601-27.851053-30.732557z m0 0" fill="#8A8A8A" p-id="7683"></path><path d="M390.92385 375.065113c-64.984917 0-117.664255-52.680646-117.664255-117.665563s52.680646-117.664255 117.664255-117.664255c64.986225 0 117.665563 52.680646 117.665563 117.664255 0.001308 64.984917-52.679338 117.665563-117.665563 117.665563z m0-205.9131c-48.729205 0-88.247537 39.518332-88.247537 88.247537 0 48.730513 39.518332 88.248845 88.247537 88.248846 48.730513 0 88.248845-39.518332 88.248846-88.248846 0-48.729205-39.518332-88.247537-88.248846-88.247537z m58.834744 102.955896H376.2168v-73.540486a14.628571 14.628571 0 0 1 14.70705-14.708359 14.628571 14.628571 0 0 1 14.708359 14.708359v44.125076h44.126385a14.625955 14.625955 0 0 1 14.707051 14.707051 14.628571 14.628571 0 0 1-14.707051 14.708359z m0 0" p-id="7684"></path></svg>